<svg width="570" height="606" viewBox="0 0 570 606" fill="none" xmlns="http://www.w3.org/2000/svg">
<rect width="98" height="566" transform="matrix(1 0 0 -1 236 586)" fill="white"/>
<rect width="22" height="25" transform="matrix(1 0 0 -1 274 25)" fill="white"/>
<rect width="22" height="28" transform="matrix(1 0 0 -1 275 606)" fill="white"/>
<rect width="21" height="80" transform="matrix(1 0 0 -1 196 158)" fill="white"/>
<rect width="21" height="198" transform="matrix(1 0 0 -1 216 238)" fill="white"/>
<rect width="28" height="198" transform="matrix(1 0 0 -1 327 238)" fill="white"/>
<rect width="178" height="177" transform="matrix(1 0 0 -1 196 411)" fill="white"/>
<rect width="138" height="118" transform="matrix(1 0 0 -1 412 450)" fill="white"/>
<rect width="138" height="118" transform="matrix(1 0 0 -1 20 450)" fill="white"/>
<rect width="118" height="117" transform="matrix(1 0 0 -1 20 469)" fill="white"/>
<rect width="79" height="30" transform="matrix(1 0 0 -1 59 488)" fill="white"/>
<rect width="40" height="40" transform="matrix(1 0 0 -1 118 525)" fill="white"/>
<rect width="40" height="59" transform="matrix(1 0 0 -1 0 430)" fill="white"/>
<rect width="40" height="59" transform="matrix(1 0 0 -1 137 430)" fill="white"/>
<rect width="40" height="59" transform="matrix(1 0 0 -1 393 430)" fill="white"/>
<rect width="40" height="59" transform="matrix(1 0 0 -1 412 313)" fill="white"/>
<rect width="41" height="60" transform="matrix(1 0 0 -1 392 217)" fill="white"/>
<rect width="40" height="79" transform="matrix(1 0 0 -1 492 294)" fill="white"/>
<rect width="24" height="21" transform="matrix(1 0 0 -1 526 294)" fill="white"/>
<rect width="40" height="40" transform="matrix(1 0 0 -1 412 158)" fill="white"/>
<rect width="40" height="40" transform="matrix(1 0 0 -1 117 157)" fill="white"/>
<rect width="40" height="58" transform="matrix(1 0 0 -1 39 292)" fill="white"/>
<rect width="40" height="20" transform="matrix(1 0 0 -1 22 294)" fill="white"/>
<rect width="40" height="20" transform="matrix(1 0 0 -1 118 313)" fill="white"/>
<rect width="39" height="21" transform="matrix(1 0 0 -1 98 138)" fill="white"/>
<rect width="40" height="40" transform="matrix(1 0 0 -1 137 197)" fill="white"/>
<rect width="29" height="20" transform="matrix(1 0 0 -1 443 138)" fill="white"/>
<rect width="40" height="59" transform="matrix(1 0 0 -1 530 430)" fill="white"/>
<rect width="40" height="59" transform="matrix(1 0 0 -1 412 528)" fill="white"/>
<rect width="79" height="59" transform="matrix(1 0 0 -1 432 488)" fill="white"/>
<rect width="79" height="59" transform="matrix(1 0 0 -1 471 469)" fill="white"/>
<rect width="139" height="99" transform="matrix(1 0 0 -1 373 294)" fill="white"/>
<rect width="257" height="99" transform="matrix(1 0 0 -1 157 391)" fill="white"/>
<rect width="178" height="80" transform="matrix(1 0 0 -1 196 528)" fill="white"/>
<rect width="138" height="80" transform="matrix(1 0 0 -1 216 566)" fill="white"/>
<rect width="138" height="80" transform="matrix(1 0 0 -1 216 480)" fill="white"/>
<rect width="139" height="99" transform="matrix(1 0 0 -1 59 294)" fill="white"/>
<rect width="21" height="80" transform="matrix(1 0 0 -1 353 158)" fill="white"/>
</svg>
