<svg width="500" height="138" viewBox="0 0 500 138" fill="none" xmlns="http://www.w3.org/2000/svg">
<rect width="19" height="120" transform="matrix(1 0 0 -1 0 120)" fill="white"/>
<rect width="19" height="138" transform="matrix(1 0 0 -1 144 138)" fill="white"/>
<rect width="19" height="138" transform="matrix(1 0 0 -1 182 138)" fill="white"/>
<rect width="19" height="138" transform="matrix(1 0 0 -1 326 138)" fill="white"/>
<rect width="19" height="138" transform="matrix(1 0 0 -1 363 138)" fill="white"/>
<rect width="126" height="18" transform="matrix(1 0 0 -1 0 138)" fill="white"/>
<rect width="126" height="18" transform="matrix(1 0 0 -1 182 138)" fill="white"/>
<rect width="131" height="16" transform="matrix(1 0 0 -1 364 77)" fill="white"/>
<rect width="136" height="18" transform="matrix(1 0 0 -1 364 18)" fill="white"/>
<rect width="136" height="18" transform="matrix(1 0 0 -1 364 138)" fill="white"/>
</svg>
